<svg width="1280" height="120" viewBox="0 0 1280 120" fill="none" xmlns="http://www.w3.org/2000/svg">
<rect x="2.5" y="2.5" width="1275" height="115" stroke="#DAA520" stroke-width="5"/>
<rect width="492" height="61" transform="translate(394 29)" fill="#1B1B1B"/>
<path d="M445.781 62.856H446.613C446.848 64.3493 447.467 65.6293 448.469 66.696C449.472 67.7627 450.752 68.296 452.309 68.296C453.653 68.296 454.699 67.9013 455.445 67.112C456.213 66.3227 456.597 65.3307 456.597 64.136C456.597 63.1333 456.299 62.3013 455.701 61.64C455.104 60.9787 454.176 60.3707 452.917 59.816L451.445 59.208C449.675 58.4613 448.331 57.6293 447.413 56.712C446.496 55.7947 446.037 54.5573 446.037 53C446.037 51.208 446.645 49.8427 447.861 48.904C449.077 47.9653 450.635 47.496 452.533 47.496C453.749 47.496 454.827 47.72 455.765 48.168C456.149 48.3173 456.416 48.392 456.565 48.392C456.736 48.392 456.864 48.328 456.949 48.2C457.035 48.0507 457.109 47.848 457.173 47.592H457.877L458.197 53.256H457.365C457.152 51.848 456.651 50.7173 455.861 49.864C455.072 49.0107 453.984 48.584 452.597 48.584C451.467 48.584 450.56 48.8933 449.877 49.512C449.216 50.1093 448.885 51.0053 448.885 52.2C448.885 53.224 449.184 54.0347 449.781 54.632C450.379 55.2293 451.296 55.7947 452.533 56.328L454.069 56.968C455.2 57.4587 456.139 57.9493 456.885 58.44C457.653 58.9307 458.283 59.5813 458.773 60.392C459.264 61.1813 459.509 62.152 459.509 63.304C459.509 65.1813 458.859 66.664 457.557 67.752C456.277 68.84 454.539 69.384 452.341 69.384C451.531 69.384 450.859 69.32 450.325 69.192C449.792 69.0853 449.227 68.9253 448.629 68.712C448.245 68.5413 447.947 68.456 447.733 68.456C447.499 68.456 447.317 68.5307 447.189 68.68C447.083 68.8293 447.019 69.0213 446.997 69.256H446.197L445.781 62.856ZM483.845 66.312C484.08 67.0587 484.336 67.5387 484.613 67.752C484.912 67.9653 485.445 68.072 486.213 68.072V69H478.885V68.072H480.101C480.72 68.072 481.029 67.8053 481.029 67.272C481.029 67.0587 480.997 66.8453 480.933 66.632L478.917 61H471.813L469.797 66.728C469.712 67.0267 469.669 67.24 469.669 67.368C469.669 67.8373 469.968 68.072 470.565 68.072H471.717V69H466.021V68.072C466.576 68.072 467.002 68.0187 467.301 67.912C467.6 67.784 467.834 67.592 468.005 67.336C468.197 67.0587 468.389 66.6427 468.581 66.088L475.365 47.88H477.157L483.845 66.312ZM478.533 59.912L475.397 51.208H475.301L472.229 59.912H478.533ZM492.884 68.072C493.695 68.072 494.26 68.0293 494.58 67.944C494.922 67.8587 495.135 67.6987 495.22 67.464C495.306 67.208 495.348 66.7707 495.348 66.152V50.728C495.348 50.1307 495.295 49.7147 495.188 49.48C495.103 49.224 494.89 49.0533 494.548 48.968C494.228 48.8613 493.674 48.808 492.884 48.808V47.88H500.82V48.808C500.01 48.808 499.434 48.8613 499.092 48.968C498.751 49.0533 498.527 49.224 498.42 49.48C498.335 49.7147 498.292 50.1307 498.292 50.728V65.352C498.292 66.1413 498.388 66.7173 498.58 67.08C498.794 67.4213 499.156 67.6453 499.668 67.752C500.18 67.8587 501.002 67.912 502.132 67.912C503.391 67.912 504.362 67.7947 505.044 67.56C505.727 67.3253 506.26 66.9093 506.644 66.312C507.028 65.6933 507.359 64.7653 507.636 63.528H508.468L508.116 69H492.884V68.072ZM516.122 68.072C516.933 68.072 517.498 68.0293 517.818 67.944C518.159 67.8587 518.373 67.6987 518.458 67.464C518.543 67.208 518.586 66.7707 518.586 66.152V50.728C518.586 50.1093 518.533 49.6827 518.426 49.448C518.341 49.192 518.138 49.0213 517.818 48.936C517.498 48.8507 516.933 48.808 516.122 48.808V47.88H531.002V53H530.17C529.978 51.8693 529.743 51.0373 529.466 50.504C529.189 49.9493 528.751 49.5547 528.154 49.32C527.557 49.0853 526.671 48.968 525.498 48.968H522.682C522.191 48.968 521.871 49.0427 521.722 49.192C521.594 49.32 521.53 49.6293 521.53 50.12V57.384H525.178C525.989 57.384 526.586 57.3093 526.97 57.16C527.354 56.9893 527.61 56.7333 527.738 56.392C527.887 56.0507 528.026 55.496 528.154 54.728H528.922V61.256H528.154C528.026 60.5093 527.887 59.9653 527.738 59.624C527.61 59.2827 527.354 59.0267 526.97 58.856C526.586 58.6853 525.989 58.6 525.178 58.6H521.53V65.448C521.53 66.1947 521.626 66.7387 521.818 67.08C522.01 67.4 522.362 67.624 522.874 67.752C523.407 67.88 524.261 67.944 525.434 67.944C526.778 67.944 527.813 67.8267 528.538 67.592C529.263 67.3573 529.829 66.9307 530.234 66.312C530.639 65.672 530.981 64.7333 531.258 63.496H532.09L531.738 69H516.122V68.072ZM562.303 69.384C559.594 69.384 557.599 68.7547 556.319 67.496C555.039 66.216 554.399 64.2427 554.399 61.576V50.728C554.399 50.1307 554.346 49.7147 554.239 49.48C554.154 49.224 553.941 49.0533 553.599 48.968C553.279 48.8613 552.725 48.808 551.935 48.808V47.88H559.807V48.808C559.018 48.808 558.453 48.8613 558.111 48.968C557.791 49.0533 557.578 49.224 557.471 49.48C557.386 49.7147 557.343 50.1307 557.343 50.728V61.768C557.343 63.7947 557.759 65.3947 558.591 66.568C559.445 67.72 560.703 68.296 562.367 68.296C564.01 68.296 565.247 67.72 566.079 66.568C566.933 65.416 567.359 63.816 567.359 61.768V50.728C567.359 50.1307 567.306 49.7147 567.199 49.48C567.114 49.224 566.901 49.0533 566.559 48.968C566.239 48.8613 565.685 48.808 564.895 48.808V47.88H572.767V48.808C571.957 48.808 571.381 48.8613 571.039 48.968C570.719 49.0533 570.517 49.224 570.431 49.48C570.346 49.7147 570.303 50.1307 570.303 50.728V61.576C570.303 64.2427 569.642 66.216 568.319 67.496C567.018 68.7547 565.013 69.384 562.303 69.384ZM579.772 68.072C580.54 68.072 581.095 68.0293 581.436 67.944C581.777 67.8373 581.991 67.6667 582.076 67.432C582.183 67.1973 582.236 66.8133 582.236 66.28V50.632C582.236 50.0773 582.183 49.6827 582.076 49.448C581.969 49.2133 581.745 49.0533 581.404 48.968C581.084 48.8613 580.54 48.808 579.772 48.808V47.88H587.708C590.289 47.88 592.209 48.424 593.468 49.512C594.748 50.6 595.388 52.0613 595.388 53.896C595.388 55.8373 594.716 57.416 593.372 58.632C592.049 59.8267 590.055 60.424 587.388 60.424H585.18V66.28C585.18 66.8347 585.233 67.2293 585.34 67.464C585.468 67.6987 585.724 67.8587 586.108 67.944C586.492 68.0293 587.121 68.072 587.996 68.072V69H579.772V68.072ZM587.196 59.24C590.524 59.24 592.188 57.5227 592.188 54.088C592.188 52.3813 591.772 51.112 590.94 50.28C590.108 49.4267 588.828 49 587.1 49C586.311 49 585.788 49.096 585.532 49.288C585.297 49.4587 585.18 49.736 585.18 50.12V59.24H587.196ZM618.382 68.072C619.406 68.072 620.11 68.0293 620.494 67.944C620.899 67.8587 621.155 67.6987 621.262 67.464C621.369 67.208 621.422 66.7707 621.422 66.152V48.936H619.694C618.521 48.936 617.646 49.0533 617.07 49.288C616.494 49.5013 616.078 49.896 615.822 50.472C615.566 51.0267 615.342 51.8907 615.15 53.064H614.318V47.88H631.47V53.064H630.638C630.446 51.8907 630.211 51.0267 629.934 50.472C629.678 49.896 629.262 49.5013 628.686 49.288C628.131 49.0533 627.278 48.936 626.126 48.936H624.366V66.152C624.366 66.7707 624.419 67.208 624.526 67.464C624.654 67.6987 624.921 67.8587 625.326 67.944C625.731 68.0293 626.425 68.072 627.406 68.072V69H618.382V68.072ZM647.588 69.384C644.367 69.384 641.945 68.392 640.324 66.408C638.724 64.4027 637.924 61.7573 637.924 58.472C637.924 55.208 638.724 52.5627 640.324 50.536C641.924 48.5093 644.345 47.496 647.588 47.496C650.852 47.496 653.284 48.5093 654.884 50.536C656.484 52.5627 657.284 55.208 657.284 58.472C657.284 61.7573 656.473 64.4027 654.852 66.408C653.252 68.392 650.831 69.384 647.588 69.384ZM647.62 68.296C649.924 68.296 651.545 67.368 652.484 65.512C653.423 63.6347 653.892 61.288 653.892 58.472C653.892 55.4853 653.433 53.096 652.516 51.304C651.599 49.4907 649.967 48.584 647.62 48.584C645.273 48.584 643.641 49.4907 642.724 51.304C641.807 53.096 641.348 55.4853 641.348 58.472C641.348 61.288 641.817 63.6347 642.756 65.512C643.695 67.368 645.316 68.296 647.62 68.296ZM685.369 69.384C682.702 69.384 680.665 68.5733 679.257 66.952C677.849 65.3307 677.145 62.9947 677.145 59.944C677.145 57.2347 677.689 54.92 678.777 53C679.886 51.0587 681.443 49.5867 683.449 48.584C685.454 47.56 687.801 47.048 690.489 47.048V48.136C689.102 48.136 687.769 48.5093 686.489 49.256C685.23 49.9813 684.185 51.08 683.353 52.552C682.521 54.024 682.083 55.816 682.041 57.928L682.105 57.96C682.702 57.192 683.374 56.5947 684.121 56.168C684.867 55.7413 685.785 55.528 686.873 55.528C688.11 55.528 689.198 55.816 690.137 56.392C691.097 56.9467 691.843 57.736 692.377 58.76C692.91 59.7627 693.177 60.9253 693.177 62.248C693.177 63.656 692.867 64.904 692.249 65.992C691.651 67.0587 690.766 67.8907 689.593 68.488C688.419 69.0853 687.011 69.384 685.369 69.384ZM685.369 68.2C686.393 68.2 687.161 67.72 687.673 66.76C688.206 65.7787 688.473 64.488 688.473 62.888C688.473 61.1813 688.185 59.848 687.609 58.888C687.033 57.928 686.233 57.448 685.209 57.448C684.227 57.448 683.459 57.8853 682.905 58.76C682.35 59.6133 682.073 60.8613 682.073 62.504C682.073 64.104 682.35 65.4587 682.905 66.568C683.459 67.656 684.281 68.2 685.369 68.2ZM709.1 69.352C706.476 69.352 704.492 68.3493 703.148 66.344C701.804 64.3173 701.132 61.6827 701.132 58.44C701.132 55.1973 701.804 52.5733 703.148 50.568C704.492 48.5413 706.476 47.528 709.1 47.528C711.745 47.528 713.729 48.5307 715.052 50.536C716.396 52.5413 717.068 55.176 717.068 58.44C717.068 61.704 716.396 64.3387 715.052 66.344C713.729 68.3493 711.745 69.352 709.1 69.352ZM709.1 68.232C709.889 68.232 710.497 67.9333 710.924 67.336C711.372 66.7387 711.692 65.736 711.884 64.328C712.097 62.92 712.204 60.968 712.204 58.472C712.204 55.9973 712.108 54.056 711.916 52.648C711.724 51.24 711.404 50.2267 710.956 49.608C710.508 48.968 709.889 48.648 709.1 48.648C708.332 48.648 707.724 48.968 707.276 49.608C706.828 50.2267 706.508 51.24 706.316 52.648C706.124 54.056 706.028 55.9973 706.028 58.472C706.028 60.968 706.124 62.92 706.316 64.328C706.508 65.736 706.828 66.7387 707.276 67.336C707.724 67.9333 708.332 68.232 709.1 68.232ZM742.054 47.496H743.814L732.006 69.384H730.246L742.054 47.496ZM730.566 58.728C729.03 58.728 727.76 58.2373 726.758 57.256C725.776 56.2533 725.286 54.8773 725.286 53.128C725.286 51.4213 725.776 50.0667 726.758 49.064C727.76 48.0613 729.03 47.56 730.566 47.56C732.123 47.56 733.392 48.0613 734.374 49.064C735.355 50.0453 735.846 51.4 735.846 53.128C735.846 54.216 735.611 55.1867 735.142 56.04C734.694 56.8933 734.064 57.5547 733.254 58.024C732.464 58.4933 731.568 58.728 730.566 58.728ZM730.598 57.736C731.28 57.736 731.728 57.3093 731.942 56.456C732.176 55.6027 732.294 54.4933 732.294 53.128C732.294 51.848 732.176 50.7707 731.942 49.896C731.728 49 731.28 48.552 730.598 48.552C729.894 48.552 729.424 49 729.19 49.896C728.976 50.7707 728.87 51.848 728.87 53.128C728.87 54.408 728.987 55.496 729.222 56.392C729.456 57.288 729.915 57.736 730.598 57.736ZM743.718 69.32C742.182 69.32 740.912 68.8293 739.91 67.848C738.928 66.8453 738.438 65.48 738.438 63.752C738.438 62.024 738.928 60.6587 739.91 59.656C740.912 58.6533 742.182 58.152 743.718 58.152C745.275 58.152 746.544 58.6533 747.526 59.656C748.507 60.6587 748.998 62.024 748.998 63.752C748.998 64.84 748.763 65.8107 748.294 66.664C747.846 67.496 747.216 68.1467 746.406 68.616C745.616 69.0853 744.72 69.32 743.718 69.32ZM743.718 68.328C744.4 68.328 744.848 67.9013 745.062 67.048C745.296 66.1947 745.414 65.096 745.414 63.752C745.414 62.4507 745.296 61.3627 745.062 60.488C744.848 59.592 744.4 59.144 743.718 59.144C743.014 59.144 742.544 59.592 742.31 60.488C742.096 61.3627 741.99 62.4507 741.99 63.752C741.99 65.032 742.096 66.12 742.31 67.016C742.544 67.8907 743.014 68.328 743.718 68.328ZM779.399 69.352C775.943 69.352 773.319 68.392 771.527 66.472C769.735 64.552 768.839 61.864 768.839 58.408C768.839 54.952 769.735 52.2747 771.527 50.376C773.319 48.456 775.943 47.496 779.399 47.496C782.855 47.496 785.479 48.456 787.271 50.376C789.084 52.2747 789.991 54.952 789.991 58.408C789.991 61.864 789.084 64.552 787.271 66.472C785.479 68.392 782.855 69.352 779.399 69.352ZM779.431 68.2C781.308 68.2 782.663 67.3893 783.495 65.768C784.348 64.1467 784.775 61.6933 784.775 58.408C784.775 51.9013 782.993 48.648 779.431 48.648C777.553 48.648 776.188 49.4587 775.335 51.08C774.503 52.68 774.087 55.1227 774.087 58.408C774.087 61.6933 774.503 64.1467 775.335 65.768C776.188 67.3893 777.553 68.2 779.431 68.2ZM796.606 67.944C797.331 67.944 797.854 67.9013 798.174 67.816C798.494 67.7307 798.697 67.5707 798.782 67.336C798.889 67.1013 798.942 66.7067 798.942 66.152V50.76C798.942 50.2053 798.889 49.8107 798.782 49.576C798.675 49.32 798.462 49.1493 798.142 49.064C797.843 48.9787 797.331 48.936 796.606 48.936V47.88H812.798V53.032H811.678C811.401 51.944 811.081 51.1227 810.718 50.568C810.377 50.0133 809.907 49.6293 809.31 49.416C808.734 49.2027 807.923 49.096 806.878 49.096H804.99C804.542 49.096 804.233 49.1813 804.062 49.352C803.891 49.5013 803.806 49.7787 803.806 50.184V57.64H807.198C807.859 57.64 808.35 57.5653 808.67 57.416C809.011 57.2453 809.257 56.968 809.406 56.584C809.577 56.2 809.715 55.6027 809.822 54.792H810.782V61.928H809.822C809.715 61.096 809.577 60.488 809.406 60.104C809.257 59.72 809.011 59.4533 808.67 59.304C808.35 59.1333 807.859 59.048 807.198 59.048H803.806V66.152C803.806 66.6853 803.859 67.0693 803.966 67.304C804.073 67.5387 804.297 67.7093 804.638 67.816C805.001 67.9013 805.566 67.944 806.334 67.944V69H796.606V67.944ZM818.656 67.944C819.381 67.944 819.904 67.9013 820.224 67.816C820.544 67.7307 820.747 67.5707 820.832 67.336C820.939 67.1013 820.992 66.7067 820.992 66.152V50.76C820.992 50.2053 820.939 49.8107 820.832 49.576C820.725 49.32 820.512 49.1493 820.192 49.064C819.893 48.9787 819.381 48.936 818.656 48.936V47.88H834.848V53.032H833.728C833.451 51.944 833.131 51.1227 832.768 50.568C832.427 50.0133 831.957 49.6293 831.36 49.416C830.784 49.2027 829.973 49.096 828.928 49.096H827.04C826.592 49.096 826.283 49.1813 826.112 49.352C825.941 49.5013 825.856 49.7787 825.856 50.184V57.64H829.248C829.909 57.64 830.4 57.5653 830.72 57.416C831.061 57.2453 831.307 56.968 831.456 56.584C831.627 56.2 831.765 55.6027 831.872 54.792H832.832V61.928H831.872C831.765 61.096 831.627 60.488 831.456 60.104C831.307 59.72 831.061 59.4533 830.72 59.304C830.4 59.1333 829.909 59.048 829.248 59.048H825.856V66.152C825.856 66.6853 825.909 67.0693 826.016 67.304C826.123 67.5387 826.347 67.7093 826.688 67.816C827.051 67.9013 827.616 67.944 828.384 67.944V69H818.656V67.944Z" fill="white"/>
<path d="M1121.01 63.3408C1121.01 64.2204 1120.69 64.9062 1120.06 65.3984C1119.42 65.8906 1118.55 66.1367 1117.46 66.1367C1116.27 66.1367 1115.36 65.984 1114.72 65.6787V64.5576C1115.13 64.7308 1115.58 64.8675 1116.06 64.9678C1116.55 65.068 1117.03 65.1182 1117.5 65.1182C1118.27 65.1182 1118.86 64.9723 1119.25 64.6807C1119.64 64.3844 1119.84 63.9743 1119.84 63.4502C1119.84 63.1038 1119.77 62.8213 1119.63 62.6025C1119.49 62.3792 1119.26 62.1742 1118.93 61.9873C1118.61 61.8005 1118.11 61.5885 1117.45 61.3516C1116.52 61.0189 1115.85 60.6247 1115.45 60.1689C1115.05 59.7132 1114.85 59.1185 1114.85 58.3848C1114.85 57.6146 1115.14 57.0016 1115.72 56.5459C1116.3 56.0902 1117.07 55.8623 1118.02 55.8623C1119.01 55.8623 1119.93 56.0446 1120.76 56.4092L1120.4 57.4209C1119.57 57.0745 1118.77 56.9014 1117.99 56.9014C1117.38 56.9014 1116.9 57.0335 1116.55 57.2979C1116.2 57.5622 1116.03 57.929 1116.03 58.3984C1116.03 58.7448 1116.09 59.0296 1116.22 59.2529C1116.35 59.4717 1116.56 59.6745 1116.86 59.8613C1117.17 60.0436 1117.63 60.2464 1118.26 60.4697C1119.31 60.8434 1120.03 61.2445 1120.42 61.6729C1120.82 62.1012 1121.01 62.6572 1121.01 63.3408ZM1130.65 66H1129.48V61.2969H1124.22V66H1123.06V56.0059H1124.22V60.2578H1129.48V56.0059H1130.65V66ZM1142.07 60.9893C1142.07 62.5889 1141.66 63.8467 1140.85 64.7627C1140.04 65.6787 1138.92 66.1367 1137.48 66.1367C1136.01 66.1367 1134.87 65.6878 1134.07 64.79C1133.27 63.8877 1132.87 62.6162 1132.87 60.9756C1132.87 59.3486 1133.28 58.0885 1134.08 57.1953C1134.88 56.2975 1136.02 55.8486 1137.5 55.8486C1138.93 55.8486 1140.05 56.3044 1140.86 57.2158C1141.67 58.1273 1142.07 59.3851 1142.07 60.9893ZM1134.1 60.9893C1134.1 62.3428 1134.39 63.3704 1134.97 64.0723C1135.54 64.7695 1136.38 65.1182 1137.48 65.1182C1138.59 65.1182 1139.43 64.7695 1139.99 64.0723C1140.56 63.375 1140.84 62.3473 1140.84 60.9893C1140.84 59.6449 1140.56 58.6263 1139.99 57.9336C1139.43 57.2363 1138.6 56.8877 1137.5 56.8877C1136.39 56.8877 1135.54 57.2386 1134.97 57.9404C1134.39 58.6377 1134.1 59.654 1134.1 60.9893ZM1150.64 58.918C1150.64 59.9297 1150.29 60.709 1149.6 61.2559C1148.91 61.7982 1147.93 62.0693 1146.64 62.0693H1145.47V66H1144.3V56.0059H1146.89C1149.39 56.0059 1150.64 56.9766 1150.64 58.918ZM1145.47 61.0713H1146.51C1147.54 61.0713 1148.29 60.9049 1148.75 60.5723C1149.21 60.2396 1149.44 59.7064 1149.44 58.9727C1149.44 58.3118 1149.22 57.8197 1148.79 57.4961C1148.36 57.1725 1147.68 57.0107 1146.76 57.0107H1145.47V61.0713ZM1164.18 66H1162.86L1157.39 57.6123H1157.34C1157.41 58.5967 1157.45 59.499 1157.45 60.3193V66H1156.38V56.0059H1157.69L1163.14 64.3594H1163.19C1163.18 64.2363 1163.16 63.8421 1163.13 63.1768C1163.1 62.5068 1163.09 62.0283 1163.1 61.7412V56.0059H1164.18V66ZM1175.61 60.9893C1175.61 62.5889 1175.2 63.8467 1174.39 64.7627C1173.58 65.6787 1172.46 66.1367 1171.02 66.1367C1169.55 66.1367 1168.41 65.6878 1167.61 64.79C1166.81 63.8877 1166.41 62.6162 1166.41 60.9756C1166.41 59.3486 1166.81 58.0885 1167.61 57.1953C1168.42 56.2975 1169.56 55.8486 1171.03 55.8486C1172.47 55.8486 1173.59 56.3044 1174.4 57.2158C1175.2 58.1273 1175.61 59.3851 1175.61 60.9893ZM1167.64 60.9893C1167.64 62.3428 1167.93 63.3704 1168.5 64.0723C1169.08 64.7695 1169.92 65.1182 1171.02 65.1182C1172.13 65.1182 1172.96 64.7695 1173.53 64.0723C1174.09 63.375 1174.38 62.3473 1174.38 60.9893C1174.38 59.6449 1174.09 58.6263 1173.53 57.9336C1172.97 57.2363 1172.14 56.8877 1171.03 56.8877C1169.92 56.8877 1169.08 57.2386 1168.5 57.9404C1167.93 58.6377 1167.64 59.654 1167.64 60.9893ZM1186.56 66H1185.42L1183.4 59.3076C1183.3 59.0114 1183.2 58.6377 1183.08 58.1865C1182.96 57.7354 1182.9 57.4642 1182.89 57.373C1182.79 57.9746 1182.63 58.6331 1182.41 59.3486L1180.46 66H1179.31L1176.65 56.0059H1177.88L1179.46 62.1787C1179.68 63.0446 1179.84 63.8285 1179.94 64.5303C1180.06 63.6963 1180.24 62.8805 1180.49 62.083L1182.28 56.0059H1183.51L1185.39 62.1377C1185.61 62.8441 1185.79 63.6416 1185.94 64.5303C1186.03 63.8831 1186.19 63.0947 1186.43 62.165L1188.01 56.0059H1189.24L1186.56 66Z" fill="black"/>
<rect x="1084.5" y="41.5" width="135" height="38" stroke="#1B1B1B"/>
<path d="M68.9297 67H61.7666V54.1504H68.9297V55.4775H63.2607V59.6172H68.5869V60.9355H63.2607V65.6641H68.9297V67ZM81.8232 67H80.1182L73.0957 56.2158H73.0254C73.1191 57.4814 73.166 58.6416 73.166 59.6963V67H71.7861V54.1504H73.4736L80.4785 64.8906H80.5488C80.5371 64.7324 80.5107 64.2256 80.4697 63.3701C80.4287 62.5088 80.4141 61.8936 80.4258 61.5244V54.1504H81.8232V67ZM95.6133 60.4521C95.6133 62.5732 95.0361 64.1963 93.8818 65.3213C92.7334 66.4404 91.0781 67 88.916 67H85.3564V54.1504H89.2939C91.292 54.1504 92.8447 54.7041 93.9521 55.8115C95.0596 56.9189 95.6133 58.4658 95.6133 60.4521ZM94.0312 60.5049C94.0312 58.8291 93.6094 57.5664 92.7656 56.7168C91.9277 55.8672 90.6797 55.4424 89.0215 55.4424H86.8506V65.708H88.6699C90.4512 65.708 91.79 65.2715 92.6865 64.3984C93.583 63.5195 94.0312 62.2217 94.0312 60.5049ZM114.316 60.5576C114.316 62.6143 113.795 64.2314 112.752 65.4092C111.715 66.5869 110.271 67.1758 108.419 67.1758C106.526 67.1758 105.064 66.5986 104.033 65.4443C103.008 64.2842 102.495 62.6494 102.495 60.54C102.495 58.4482 103.011 56.8281 104.042 55.6797C105.073 54.5254 106.538 53.9482 108.437 53.9482C110.282 53.9482 111.724 54.5342 112.761 55.7061C113.798 56.8779 114.316 58.4951 114.316 60.5576ZM104.077 60.5576C104.077 62.2979 104.446 63.6191 105.185 64.5215C105.929 65.418 107.007 65.8662 108.419 65.8662C109.843 65.8662 110.918 65.418 111.645 64.5215C112.371 63.625 112.734 62.3037 112.734 60.5576C112.734 58.8291 112.371 57.5195 111.645 56.6289C110.924 55.7324 109.854 55.2842 108.437 55.2842C107.013 55.2842 105.929 55.7354 105.185 56.6377C104.446 57.5342 104.077 58.8408 104.077 60.5576ZM118.685 67H117.19V54.1504H124.354V55.4775H118.685V60.1797H124.011V61.5068H118.685V67ZM138.416 63.5811C138.416 64.7119 138.006 65.5938 137.186 66.2266C136.365 66.8594 135.252 67.1758 133.846 67.1758C132.322 67.1758 131.15 66.9795 130.33 66.5869V65.1455C130.857 65.3682 131.432 65.5439 132.053 65.6729C132.674 65.8018 133.289 65.8662 133.898 65.8662C134.895 65.8662 135.645 65.6787 136.148 65.3037C136.652 64.9229 136.904 64.3955 136.904 63.7217C136.904 63.2764 136.813 62.9131 136.632 62.6318C136.456 62.3447 136.157 62.0811 135.735 61.8408C135.319 61.6006 134.684 61.3281 133.828 61.0234C132.633 60.5957 131.777 60.0889 131.262 59.5029C130.752 58.917 130.497 58.1523 130.497 57.209C130.497 56.2188 130.869 55.4307 131.613 54.8447C132.357 54.2588 133.342 53.9658 134.566 53.9658C135.844 53.9658 137.019 54.2002 138.091 54.6689L137.625 55.9697C136.564 55.5244 135.533 55.3018 134.531 55.3018C133.74 55.3018 133.122 55.4717 132.677 55.8115C132.231 56.1514 132.009 56.623 132.009 57.2266C132.009 57.6719 132.091 58.0381 132.255 58.3252C132.419 58.6064 132.694 58.8672 133.081 59.1074C133.474 59.3418 134.071 59.6025 134.874 59.8896C136.222 60.3701 137.147 60.8857 137.651 61.4365C138.161 61.9873 138.416 62.7021 138.416 63.5811ZM148.207 67H141.044V54.1504H148.207V55.4775H142.538V59.6172H147.864V60.9355H142.538V65.6641H148.207V67ZM159.141 67L157.541 62.9131H152.391L150.809 67H149.297L154.377 54.0977H155.634L160.688 67H159.141ZM157.075 61.5684L155.581 57.5869C155.388 57.083 155.188 56.4648 154.983 55.7324C154.854 56.2949 154.67 56.9131 154.43 57.5869L152.918 61.5684H157.075ZM169.705 63.5811C169.705 64.7119 169.295 65.5938 168.475 66.2266C167.654 66.8594 166.541 67.1758 165.135 67.1758C163.611 67.1758 162.439 66.9795 161.619 66.5869V65.1455C162.146 65.3682 162.721 65.5439 163.342 65.6729C163.963 65.8018 164.578 65.8662 165.188 65.8662C166.184 65.8662 166.934 65.6787 167.438 65.3037C167.941 64.9229 168.193 64.3955 168.193 63.7217C168.193 63.2764 168.103 62.9131 167.921 62.6318C167.745 62.3447 167.446 62.0811 167.024 61.8408C166.608 61.6006 165.973 61.3281 165.117 61.0234C163.922 60.5957 163.066 60.0889 162.551 59.5029C162.041 58.917 161.786 58.1523 161.786 57.209C161.786 56.2188 162.158 55.4307 162.902 54.8447C163.646 54.2588 164.631 53.9658 165.855 53.9658C167.133 53.9658 168.308 54.2002 169.38 54.6689L168.914 55.9697C167.854 55.5244 166.822 55.3018 165.82 55.3018C165.029 55.3018 164.411 55.4717 163.966 55.8115C163.521 56.1514 163.298 56.623 163.298 57.2266C163.298 57.6719 163.38 58.0381 163.544 58.3252C163.708 58.6064 163.983 58.8672 164.37 59.1074C164.763 59.3418 165.36 59.6025 166.163 59.8896C167.511 60.3701 168.437 60.8857 168.94 61.4365C169.45 61.9873 169.705 62.7021 169.705 63.5811ZM183.486 60.5576C183.486 62.6143 182.965 64.2314 181.922 65.4092C180.885 66.5869 179.44 67.1758 177.589 67.1758C175.696 67.1758 174.234 66.5986 173.203 65.4443C172.178 64.2842 171.665 62.6494 171.665 60.54C171.665 58.4482 172.181 56.8281 173.212 55.6797C174.243 54.5254 175.708 53.9482 177.606 53.9482C179.452 53.9482 180.894 54.5342 181.931 55.7061C182.968 56.8779 183.486 58.4951 183.486 60.5576ZM173.247 60.5576C173.247 62.2979 173.616 63.6191 174.354 64.5215C175.099 65.418 176.177 65.8662 177.589 65.8662C179.013 65.8662 180.088 65.418 180.814 64.5215C181.541 63.625 181.904 62.3037 181.904 60.5576C181.904 58.8291 181.541 57.5195 180.814 56.6289C180.094 55.7324 179.024 55.2842 177.606 55.2842C176.183 55.2842 175.099 55.7354 174.354 56.6377C173.616 57.5342 173.247 58.8408 173.247 60.5576ZM196.397 67H194.692L187.67 56.2158H187.6C187.693 57.4814 187.74 58.6416 187.74 59.6963V67H186.36V54.1504H188.048L195.053 64.8906H195.123C195.111 64.7324 195.085 64.2256 195.044 63.3701C195.003 62.5088 194.988 61.8936 195 61.5244V54.1504H196.397V67Z" fill="black"/>
</svg>
